<?xml version="1.0" encoding="UTF-8" standalone="no"?><!DOCTYPE svg PUBLIC "-//W3C//DTD SVG 1.1//EN" "http://www.w3.org/Graphics/SVG/1.1/DTD/svg11.dtd"><svg width="100%" height="100%" viewBox="0 0 1006 1000" version="1.1" xmlns="http://www.w3.org/2000/svg" xmlns:xlink="http://www.w3.org/1999/xlink" xml:space="preserve" xmlns:serif="http://www.serif.com/" style="fill-rule:evenodd;clip-rule:evenodd;stroke-linejoin:round;stroke-miterlimit:2;"><path d="M650.247,499.545l-147.314,147.313l-147.314,-147.313l147.314,-147.314l147.314,147.314Z" style="fill:#1890ff;"/><g><path d="M355.619,851.775l147.314,-147.314l147.314,147.314l-147.314,147.314l-147.314,-147.314Z" style="fill:#bababa;"/><path d="M650.247,147.314l-147.314,147.314l-147.314,-147.314l147.314,-147.314l147.314,147.314Z" style="fill:#bababa;"/><path d="M294.628,204.917l-294.628,294.628l294.628,294.627l147.314,-147.314l-147.314,-147.313l147.314,-147.314l-147.314,-147.314Z" style="fill:#bababa;"/><path d="M711.238,499.545l-147.314,-147.314l147.314,-147.314l294.628,294.628l-294.628,294.627l-147.314,-147.314l147.314,-147.313Z" style="fill:#bababa;"/></g></svg>