<?xml version="1.0" encoding="UTF-8" standalone="no"?><!DOCTYPE svg PUBLIC "-//W3C//DTD SVG 1.1//EN" "http://www.w3.org/Graphics/SVG/1.1/DTD/svg11.dtd"><svg width="100%" height="100%" viewBox="0 0 259 259" version="1.1" xmlns="http://www.w3.org/2000/svg" xmlns:xlink="http://www.w3.org/1999/xlink" xml:space="preserve" xmlns:serif="http://www.serif.com/" style="fill-rule:evenodd;clip-rule:evenodd;stroke-linejoin:round;stroke-miterlimit:2;"><path d="M116.667,235.658c-9.625,-1.027 -19.079,-3.442 -28.05,-7.11c-12.389,-5.066 -23.792,-12.476 -33.478,-21.712c-9.197,-8.769 -16.828,-19.161 -22.417,-30.575c-4.844,-9.892 -8.139,-20.529 -9.736,-31.427l-0.334,-3.167l12.06,-0l0.081,0.831c1.358,9.686 4.224,19.148 8.471,27.957c4.988,10.344 11.859,19.759 20.169,27.682c8.603,8.203 18.73,14.785 29.734,19.285c7.526,3.078 15.436,5.16 23.5,6.112l-0,12.124c4.367,0.609 8.779,0.853 13.193,0.825c3.95,-0.025 7.896,-0.269 11.807,-0.782l-0,22.632l-25,0l-0,-22.675Zm119.037,-93.991l-0.169,1.83c-1.461,10.934 -4.628,21.626 -9.358,31.591c-5.451,11.485 -12.96,21.973 -22.055,30.854c-9.571,9.346 -20.878,16.889 -33.199,22.104c-9.327,3.948 -19.201,6.535 -29.256,7.655l-0,-12.147c8.445,-1.022 16.725,-3.257 24.572,-6.578c10.942,-4.631 20.985,-11.333 29.485,-19.633c8.218,-8.025 14.979,-17.524 19.841,-27.932c4.094,-8.764 6.829,-18.15 8.06,-27.744l12.079,-0Zm-94.037,55.707c4.974,-0.849 9.84,-2.294 14.495,-4.265c7.969,-3.372 15.282,-8.252 21.472,-14.297c5.984,-5.843 10.907,-12.761 14.448,-20.339c2.491,-5.334 4.292,-10.984 5.165,-16.806l8.936,-0c-1.036,7.255 -3.231,14.318 -6.374,20.94c-3.969,8.363 -9.437,16 -16.06,22.467c-6.97,6.806 -15.204,12.299 -24.175,16.096c-5.735,2.427 -11.753,4.149 -17.907,5.05l-0,17.334c-3.93,0.61 -7.904,0.884 -11.883,0.909c-4.392,0.028 -8.783,-0.247 -13.117,-0.929l-0,-17.302c4.286,0.773 8.644,1.109 13.005,1.082c4.024,-0.026 8.042,-0.362 11.995,-1.094l-0,-8.846Zm-89.574,-55.707l8.966,-0c0.95,6.096 2.875,12.009 5.554,17.566c3.631,7.532 8.635,14.388 14.686,20.158c6.266,5.973 13.639,10.766 21.653,14.043c4.419,1.807 9.02,3.143 13.715,3.97l-0,8.828c-5.839,-0.862 -11.557,-2.459 -17.028,-4.696c-9.022,-3.689 -17.326,-9.085 -24.379,-15.811c-6.698,-6.385 -12.254,-13.953 -16.324,-22.264c-3.364,-6.87 -5.702,-14.232 -6.843,-21.794Zm89.574,-89.614c6.777,1.052 13.399,3.044 19.649,5.872c7.727,3.496 14.869,8.26 21.075,14.039c6.424,5.98 11.836,13.036 15.934,20.798c3.503,6.637 6.038,13.778 7.498,21.14l0.314,2.765l-8.835,-0l-0.237,-1.908c-1.347,-6.37 -3.603,-12.542 -6.678,-18.281c-3.682,-6.873 -8.528,-13.113 -14.266,-18.391c-5.648,-5.196 -12.153,-9.452 -19.184,-12.531c-4.879,-2.136 -10.005,-3.7 -15.27,-4.508l-0,55.619l55.635,-0c1.417,7.011 1.606,14.247 0.703,21.342l-0.758,3.658l-55.58,-0l-0,55.707c-3.966,0.782 -8.005,1.162 -12.051,1.187c-4.344,0.028 -8.686,-0.351 -12.949,-1.157l-0,-55.737l-55.608,-0l-0.615,-2.792c-1.032,-7.367 -0.882,-14.904 0.533,-22.208l55.69,-0l-0,-55.645l2.359,-0.516c3.211,-0.471 6.447,-0.704 9.691,-0.735c3.253,-0.01 6.501,0.182 9.726,0.613l3.224,0.664l-0,-8.995Zm-119.032,64.614l0.89,-6.488c1.78,-9.952 4.984,-19.64 9.485,-28.692c5.37,-10.8 12.573,-20.671 21.202,-29.097c8.636,-8.433 18.686,-15.402 29.622,-20.512c8.778,-4.101 18.111,-6.996 27.669,-8.582l5.164,-0.473l-0,11.947l11.883,-0.901l13.117,0.827l-0,17.357l-0.606,-0.135c-3.77,-0.577 -7.575,-0.863 -11.389,-0.9c-0.673,-0.002 -1.345,0.003 -2.018,0.013l-10.987,1.008l-0,-17.269l-1.425,0.108c-8.715,1.277 -17.244,3.776 -25.269,7.407c-9.773,4.421 -18.777,10.509 -26.54,17.91c-7.752,7.391 -14.255,16.081 -19.14,25.613c-3.995,7.796 -6.901,16.142 -8.605,24.734l-0.948,6.125l17.371,-0c-1.369,7.887 -1.426,15.989 -0.265,23.909l0.247,1.091l-17.381,-0c-1.112,-8.285 -1.117,-16.719 0.028,-25l-12.105,-0Zm200.993,-0c1.096,8.164 1.111,16.472 0.071,24.642l-0.074,0.358l-17.442,-0l0.441,-2.065c1.018,-7.614 0.915,-15.381 -0.487,-22.935l17.491,-0Zm0,-0l-1.22,-7.286c-1.85,-8.748 -4.948,-17.224 -9.17,-25.105c-5.056,-9.438 -11.711,-18.006 -19.591,-25.255c-7.756,-7.135 -16.689,-12.98 -26.344,-17.207c-8.082,-3.538 -16.654,-5.934 -25.398,-7.103l-0.238,-0.015l-0,-11.914l3.834,0.303c9.591,1.467 18.974,4.249 27.814,8.248c10.611,4.801 20.419,11.344 28.943,19.279c8.821,8.213 16.253,17.903 21.88,28.562c4.812,9.114 8.293,18.921 10.298,29.03l1.316,8.463l22.581,-0l0,25l-22.629,-0c1.009,-8.293 1.021,-16.704 0.048,-25l-12.124,-0Zm-200.993,-0c-1.023,8.294 -1.03,16.709 0.017,25l-22.652,-0l0,-25l22.635,-0Zm94.032,-64.628l-0,8.983c-5.54,0.883 -10.931,2.565 -16.041,4.877c-7.117,3.22 -13.673,7.653 -19.327,13.043c-5.645,5.382 -10.38,11.71 -13.937,18.651c-2.91,5.677 -5.026,11.755 -6.266,18.012l-0.119,1.062l-8.866,-0l0.128,-1.327c1.296,-7.247 3.629,-14.302 6.907,-20.893c3.91,-7.865 9.155,-15.053 15.439,-21.189c6.288,-6.141 13.607,-11.216 21.57,-14.937c6.392,-2.986 13.189,-5.094 20.149,-6.249l0.363,-0.033Zm25,-29.257l-11.807,-0.933c-0.924,-0.003 -1.847,0.003 -2.771,0.018l-10.422,0.956l-0,-22.823l25,-0l-0,22.782Z" style="fill:#34d2e3;"/></svg>